<svg id="Layer_1" data-name="Layer 1" xmlns="http://www.w3.org/2000/svg" viewBox="0 0 2515.4 389.1"><defs><style>.cls-1{fill:#29253e;}</style></defs><path class="cls-1" d="M24.1,39.8H177.6V91.5c-33.9.7-67.4-.1-102.4.5V349.4H24.1Z"/><path class="cls-1" d="M1037.9,349.2A155.3,155.3,0,0,1,882.5,194c-.2-83,70.9-154.9,156.6-154.3,79.2.5,154.9,66.7,155,154.8S1116.8,350.9,1037.9,349.2Zm-.6-51.9c59.5,2,104.9-49.1,105.2-102.1S1095.3,91.7,1038.3,91.5c-51.9-.1-104.5,40.2-104.7,102.7S984.5,298.8,1037.3,297.3Z"/><path class="cls-1" d="M1605,40.7h49.9V346c-3.7-2.7-6.7-4.6-9.3-6.9L1426.2,142.5c-7.3-6.5-15-12.7-21.8-19.7-2.8-2.8-5.4-7.3-5.5-11.1-.5-22.5-.2-45.1-.2-71.2L1605,225.4Z"/><path class="cls-1" d="M559.4,239.1l62.8,110c-19.2,0-36.5.3-53.8-.3-3-.1-6.7-3.7-8.5-6.6-8-12.9-15.5-26.2-23.1-39.3L474.6,195.8c5-.4,8.6-.9,12.2-1,13.7-.3,27.6.9,41-1C554,190,573,166.1,571.6,141S549.1,92.9,522,92.2c-30.9-.9-61.9-.8-92.8-.2-11.5.3-18.3-3.9-23.4-13.7C399.2,65.8,391.9,53.7,384,40h47.2c29.5,0,58.9-.2,88.4,0,58.7.5,104.6,47.4,102.8,106-1.1,37-18.8,65.3-49.8,85.3C568.6,233.9,564.4,236.2,559.4,239.1Z"/><path class="cls-1" d="M2488.2,40,2367.7,193.9c-11.1-13.8-21.5-26.7-33.1-40.9l-32.8,40.9L2180.5,40c21.6,0,40.7.2,59.8-.1,6-.1,8.6,3.5,11.6,7.4l72.5,93c3,3.8,6.2,7.5,10.3,12.4l29.2-36.9c17.9-22.8,35.9-45.6,53.6-68.5,3.5-4.5,6.7-7.6,13.1-7.5C2448.8,40.3,2467,40,2488.2,40Z"/><path class="cls-1" d="M2334.4,236.3l-62.7,80.2c-7,8.9-13.7,18-21,26.6-2.2,2.7-6,5.7-9.1,5.8-19.6.5-39.1.3-61,.3l121.2-154,32.6,41.1,33.3-41,120.5,153.8c-22.1,0-41.4.4-60.7-.3-3.5-.1-7.5-4.1-10-7.2q-37.5-47.4-74.6-95Z"/><path class="cls-1" d="M1921.7,41.6c16.4,16.1,31.2,30.3,45.5,45.1,2.6,2.7,3.9,7.9,3.9,11.9q.3,95.9,0,191.7c0,3.9-1.7,8.9-4.4,11.7-14.2,14.9-28.9,29.2-45,45.2Z"/></svg>