<svg id="Layer_1" data-name="Layer 1" xmlns="http://www.w3.org/2000/svg" viewBox="0 0 73.5 1289"><defs><style>.cls-1{fill:#29253e;}.cls-2{fill:none;stroke:#29253e;stroke-miterlimit:10;}</style></defs><path class="cls-1" d="M32.7,525.8h8.8v28.7H32.7Z"/><path class="cls-1" d="M32.6,239.9v-9h9.1v9Z"/><path class="cls-1" d="M41.7,249.9v8.9H32.5v-8.9Z"/><path class="cls-1" d="M41.6,721.7v8.7h-9v-8.7Z"/><path class="cls-1" d="M41.6,740.6v8.9h-9v-8.9Z"/><path class="cls-2" d="M55.3,1167.4c0,4.3.1,8.7,0,13.1s-1.6,5-5.1,5.1H24c-3.4,0-5-1.5-5-4.8-.1-8.9-.1-17.7,0-26.5,0-3.4,1.6-4.9,4.9-5H50.5c3.3.1,4.8,1.7,4.8,5.1S55.3,1163,55.3,1167.4Zm-19.9-.1a25.4,25.4,0,0,1-2.2,2.3l-7.2,7.3,1.6,1.7,1.6-1.5,7.7-8.1,2.3,2.1,7.9,7.8,1.6-1.5-1.7-1.9-8.2-7.9,2.3-2.5,7.2-7.3-1.5-1.7a22.5,22.5,0,0,0-1.6,1.6l-7.9,8.2-9.2-9.2-1.6,1.7Z"/><path class="cls-1" d="M55.3,1024.8c0,4.4.1,8.8,0,13.1s-1.6,5.1-5.1,5.1H24c-3.4,0-5-1.6-5-4.9-.1-8.8-.1-17.7,0-26.5,0-3.3,1.6-4.9,4.9-4.9,8.9-.1,17.7-.1,26.6,0,3.3,0,4.8,1.7,4.8,5S55.3,1020.4,55.3,1024.8Zm-19.9,0-2.2,2.3-7.2,7.3,1.6,1.7,1.6-1.6,7.7-8,2.3,2,7.9,7.9,1.6-1.6L47,1033l-8.2-8,2.3-2.5,7.2-7.2-1.5-1.8-1.6,1.6-7.9,8.3-9.2-9.3-1.6,1.8Z"/></svg>