<svg id="Layer_1" data-name="Layer 1" xmlns="http://www.w3.org/2000/svg" viewBox="0 0 612 792"><defs><style>.cls-1{fill:#29253e;}</style></defs><path class="cls-1" d="M212.2,690.3q0-165,.1-330V255.8c0-11.4,0-11.4-11.7-11.4H44.8c-10.1,0-10.1,0-10.1-10.3,0-23.7.1-47.4-.1-71-.1-6,1.9-8,8-8H293.7c7.6,0,7.8.3,7.8,9.9q0,242.3.1,484.4v40.8Z"/><path class="cls-1" d="M312.2,690.3q0-93,.1-186.1V165.7c0-10.5,0-10.5,10.4-10.5H569.3c9.8,0,9.8,0,9.8,9.8v69.1c0,10.3,0,10.3-10.1,10.3-53,0-106,.1-159.1-.1-6.1,0-8.5,1.8-8.5,8.2q.3,218.8.2,437.8Z"/></svg>