<svg id="Layer_1" data-name="Layer 1" xmlns="http://www.w3.org/2000/svg" viewBox="0 0 1538 389.1"><defs><style>.cls-1{fill:#29253e;}</style></defs><path class="cls-1" d="M1462,224.4H1306.7c-1.1,14.3-.4,28.4-.5,42.4s0,28.5,0,42.8v43.3h-50c-.2-2.7-.5-5.1-.5-7.4-.1-36.8.1-73.7-.2-110.5-.1-7.5,2-13,7.4-18.2,12.7-12.2,25.1-24.9,37.1-37.8,5.2-5.6,11-7.2,18.3-7.2,41.8.3,83.5.1,125.3.1h18.1c.1-14.1.3-27.6.4-41.2v-85h48.3c2.8,10.4,3.5,290.1.5,307.3h-48.6C1461.8,310.8,1462.3,268.4,1462,224.4Z"/><path class="cls-1" d="M1092.6,88l-33.3,37.1c-14.8-12-29.8-22-48.1-25.9C946.4,85.3,897.5,123.6,884.7,176c-13.7,55.5,23.4,114,80.4,123.5,18.5,3.1,47.6,20.4,47.6,20.4l30.6,20.7c-48.4,27-134.7,13.6-181.3-49.3-49.7-67.2-38.7-157.2,26-211.4C948.3,29.3,1040.4,33.6,1092.6,88Z"/><path class="cls-1" d="M170.2,96.3H68.1c-1.2,21.9-.4,42.8-.6,63.7s0,43.2,0,64.8V352.6H17.9V46.7c9.6-2.8,135.7-3.4,152.3-.4Z"/><path class="cls-1" d="M585.1,223.3H380.7V174.5H585.1Z"/><path class="cls-1" d="M378.6,352.7c2.7-3.4,4.3-5.8,6.2-7.7,13.3-12.4,26.4-24.9,40.1-36.8,3.7-3.2,9.4-5.9,14.2-6,46.6-.4,93.2-.2,139.8-.1,1.9,0,3.7.6,6.2,1v49.6Z"/><path class="cls-1" d="M381.2,45.2H585.1v50A104.3,104.3,0,0,1,574,96.3c-43.7,0-87.4-.1-131,.1-7.9.1-14-1.8-19.6-7.7C410.2,74.4,396.4,60.7,381.2,45.2Z"/></svg>